%TF.GenerationSoftware,KiCad,Pcbnew,8.0.6*%
%TF.CreationDate,2026-01-06T18:32:01-08:00*%
%TF.ProjectId,qfn-programmer,71666e2d-7072-46f6-9772-616d6d65722e,rev?*%
%TF.SameCoordinates,Original*%
%TF.FileFunction,Drillmap*%
%TF.FilePolarity,Positive*%
%FSLAX45Y45*%
G04 Gerber Fmt 4.5, Leading zero omitted, Abs format (unit mm)*
G04 Created by KiCad (PCBNEW 8.0.6) date 2026-01-06 18:32:01*
%MOMM*%
%LPD*%
G01*
G04 APERTURE LIST*
%ADD10C,0.010050*%
%ADD11C,0.050000*%
%ADD12C,0.200000*%
%ADD13C,0.100000*%
%ADD14C,0.320000*%
G04 APERTURE END LIST*
D10*
X25318802Y-6310000D02*
G75*
G02*
X25317797Y-6310000I-503J0D01*
G01*
X25317797Y-6310000D02*
G75*
G02*
X25318802Y-6310000I503J0D01*
G01*
X25316502Y-11692000D02*
G75*
G02*
X25315497Y-11692000I-503J0D01*
G01*
X25315497Y-11692000D02*
G75*
G02*
X25316502Y-11692000I503J0D01*
G01*
D11*
X18056000Y-6288000D02*
X26384000Y-6288000D01*
X26384000Y-12099000D01*
X18056000Y-12099000D01*
X18056000Y-6288000D01*
D12*
D13*
X20991000Y-10291000D02*
X21021000Y-10321000D01*
X21021000Y-10291000D02*
X20991000Y-10321000D01*
X21393000Y-9176000D02*
X21423000Y-9206000D01*
X21423000Y-9176000D02*
X21393000Y-9206000D01*
X21402000Y-8883000D02*
X21432000Y-8913000D01*
X21432000Y-8883000D02*
X21402000Y-8913000D01*
X21503000Y-9490000D02*
X21533000Y-9520000D01*
X21533000Y-9490000D02*
X21503000Y-9520000D01*
X23361300Y-9179000D02*
X23391300Y-9209000D01*
X23391300Y-9179000D02*
X23361300Y-9209000D01*
X19538000Y-9573000D02*
G75*
G02*
X19438000Y-9573000I-50000J0D01*
G01*
X19438000Y-9573000D02*
G75*
G02*
X19538000Y-9573000I50000J0D01*
G01*
X19538000Y-9827000D02*
G75*
G02*
X19438000Y-9827000I-50000J0D01*
G01*
X19438000Y-9827000D02*
G75*
G02*
X19538000Y-9827000I50000J0D01*
G01*
X19538000Y-10081000D02*
G75*
G02*
X19438000Y-10081000I-50000J0D01*
G01*
X19438000Y-10081000D02*
G75*
G02*
X19538000Y-10081000I50000J0D01*
G01*
X19538000Y-10335000D02*
G75*
G02*
X19438000Y-10335000I-50000J0D01*
G01*
X19438000Y-10335000D02*
G75*
G02*
X19538000Y-10335000I50000J0D01*
G01*
X19538000Y-10589000D02*
G75*
G02*
X19438000Y-10589000I-50000J0D01*
G01*
X19438000Y-10589000D02*
G75*
G02*
X19538000Y-10589000I50000J0D01*
G01*
X19548000Y-7792000D02*
G75*
G02*
X19448000Y-7792000I-50000J0D01*
G01*
X19448000Y-7792000D02*
G75*
G02*
X19548000Y-7792000I50000J0D01*
G01*
X19548000Y-8046000D02*
G75*
G02*
X19448000Y-8046000I-50000J0D01*
G01*
X19448000Y-8046000D02*
G75*
G02*
X19548000Y-8046000I50000J0D01*
G01*
X19548000Y-8300000D02*
G75*
G02*
X19448000Y-8300000I-50000J0D01*
G01*
X19448000Y-8300000D02*
G75*
G02*
X19548000Y-8300000I50000J0D01*
G01*
X19548000Y-8554000D02*
G75*
G02*
X19448000Y-8554000I-50000J0D01*
G01*
X19448000Y-8554000D02*
G75*
G02*
X19548000Y-8554000I50000J0D01*
G01*
X19548000Y-8808000D02*
G75*
G02*
X19448000Y-8808000I-50000J0D01*
G01*
X19448000Y-8808000D02*
G75*
G02*
X19548000Y-8808000I50000J0D01*
G01*
D14*
X18470000Y-6537000D02*
X18470000Y-6857000D01*
X18310000Y-6697000D02*
X18630000Y-6697000D01*
X18470000Y-11537000D02*
X18470000Y-11857000D01*
X18310000Y-11697000D02*
X18630000Y-11697000D01*
X25970000Y-6537000D02*
X25970000Y-6857000D01*
X25810000Y-6697000D02*
X26130000Y-6697000D01*
X25970000Y-11537000D02*
X25970000Y-11857000D01*
X25810000Y-11697000D02*
X26130000Y-11697000D01*
D12*
X18314277Y-12412984D02*
X18314277Y-12212984D01*
X18314277Y-12212984D02*
X18361896Y-12212984D01*
X18361896Y-12212984D02*
X18390467Y-12222508D01*
X18390467Y-12222508D02*
X18409515Y-12241555D01*
X18409515Y-12241555D02*
X18419039Y-12260603D01*
X18419039Y-12260603D02*
X18428563Y-12298698D01*
X18428563Y-12298698D02*
X18428563Y-12327269D01*
X18428563Y-12327269D02*
X18419039Y-12365365D01*
X18419039Y-12365365D02*
X18409515Y-12384412D01*
X18409515Y-12384412D02*
X18390467Y-12403460D01*
X18390467Y-12403460D02*
X18361896Y-12412984D01*
X18361896Y-12412984D02*
X18314277Y-12412984D01*
X18514277Y-12412984D02*
X18514277Y-12279650D01*
X18514277Y-12317746D02*
X18523801Y-12298698D01*
X18523801Y-12298698D02*
X18533324Y-12289174D01*
X18533324Y-12289174D02*
X18552372Y-12279650D01*
X18552372Y-12279650D02*
X18571420Y-12279650D01*
X18638086Y-12412984D02*
X18638086Y-12279650D01*
X18638086Y-12212984D02*
X18628563Y-12222508D01*
X18628563Y-12222508D02*
X18638086Y-12232031D01*
X18638086Y-12232031D02*
X18647610Y-12222508D01*
X18647610Y-12222508D02*
X18638086Y-12212984D01*
X18638086Y-12212984D02*
X18638086Y-12232031D01*
X18761896Y-12412984D02*
X18742848Y-12403460D01*
X18742848Y-12403460D02*
X18733324Y-12384412D01*
X18733324Y-12384412D02*
X18733324Y-12212984D01*
X18866658Y-12412984D02*
X18847610Y-12403460D01*
X18847610Y-12403460D02*
X18838086Y-12384412D01*
X18838086Y-12384412D02*
X18838086Y-12212984D01*
X19095229Y-12412984D02*
X19095229Y-12212984D01*
X19095229Y-12212984D02*
X19161896Y-12355841D01*
X19161896Y-12355841D02*
X19228563Y-12212984D01*
X19228563Y-12212984D02*
X19228563Y-12412984D01*
X19409515Y-12412984D02*
X19409515Y-12308222D01*
X19409515Y-12308222D02*
X19399991Y-12289174D01*
X19399991Y-12289174D02*
X19380944Y-12279650D01*
X19380944Y-12279650D02*
X19342848Y-12279650D01*
X19342848Y-12279650D02*
X19323801Y-12289174D01*
X19409515Y-12403460D02*
X19390467Y-12412984D01*
X19390467Y-12412984D02*
X19342848Y-12412984D01*
X19342848Y-12412984D02*
X19323801Y-12403460D01*
X19323801Y-12403460D02*
X19314277Y-12384412D01*
X19314277Y-12384412D02*
X19314277Y-12365365D01*
X19314277Y-12365365D02*
X19323801Y-12346317D01*
X19323801Y-12346317D02*
X19342848Y-12336793D01*
X19342848Y-12336793D02*
X19390467Y-12336793D01*
X19390467Y-12336793D02*
X19409515Y-12327269D01*
X19504753Y-12279650D02*
X19504753Y-12479650D01*
X19504753Y-12289174D02*
X19523801Y-12279650D01*
X19523801Y-12279650D02*
X19561896Y-12279650D01*
X19561896Y-12279650D02*
X19580944Y-12289174D01*
X19580944Y-12289174D02*
X19590467Y-12298698D01*
X19590467Y-12298698D02*
X19599991Y-12317746D01*
X19599991Y-12317746D02*
X19599991Y-12374888D01*
X19599991Y-12374888D02*
X19590467Y-12393936D01*
X19590467Y-12393936D02*
X19580944Y-12403460D01*
X19580944Y-12403460D02*
X19561896Y-12412984D01*
X19561896Y-12412984D02*
X19523801Y-12412984D01*
X19523801Y-12412984D02*
X19504753Y-12403460D01*
X19685705Y-12393936D02*
X19695229Y-12403460D01*
X19695229Y-12403460D02*
X19685705Y-12412984D01*
X19685705Y-12412984D02*
X19676182Y-12403460D01*
X19676182Y-12403460D02*
X19685705Y-12393936D01*
X19685705Y-12393936D02*
X19685705Y-12412984D01*
X19685705Y-12289174D02*
X19695229Y-12298698D01*
X19695229Y-12298698D02*
X19685705Y-12308222D01*
X19685705Y-12308222D02*
X19676182Y-12298698D01*
X19676182Y-12298698D02*
X19685705Y-12289174D01*
X19685705Y-12289174D02*
X19685705Y-12308222D01*
D13*
X18023500Y-12726500D02*
X18053500Y-12756500D01*
X18053500Y-12726500D02*
X18023500Y-12756500D01*
D12*
X18352372Y-12632984D02*
X18371420Y-12632984D01*
X18371420Y-12632984D02*
X18390467Y-12642508D01*
X18390467Y-12642508D02*
X18399991Y-12652031D01*
X18399991Y-12652031D02*
X18409515Y-12671079D01*
X18409515Y-12671079D02*
X18419039Y-12709174D01*
X18419039Y-12709174D02*
X18419039Y-12756793D01*
X18419039Y-12756793D02*
X18409515Y-12794888D01*
X18409515Y-12794888D02*
X18399991Y-12813936D01*
X18399991Y-12813936D02*
X18390467Y-12823460D01*
X18390467Y-12823460D02*
X18371420Y-12832984D01*
X18371420Y-12832984D02*
X18352372Y-12832984D01*
X18352372Y-12832984D02*
X18333324Y-12823460D01*
X18333324Y-12823460D02*
X18323801Y-12813936D01*
X18323801Y-12813936D02*
X18314277Y-12794888D01*
X18314277Y-12794888D02*
X18304753Y-12756793D01*
X18304753Y-12756793D02*
X18304753Y-12709174D01*
X18304753Y-12709174D02*
X18314277Y-12671079D01*
X18314277Y-12671079D02*
X18323801Y-12652031D01*
X18323801Y-12652031D02*
X18333324Y-12642508D01*
X18333324Y-12642508D02*
X18352372Y-12632984D01*
X18504753Y-12813936D02*
X18514277Y-12823460D01*
X18514277Y-12823460D02*
X18504753Y-12832984D01*
X18504753Y-12832984D02*
X18495229Y-12823460D01*
X18495229Y-12823460D02*
X18504753Y-12813936D01*
X18504753Y-12813936D02*
X18504753Y-12832984D01*
X18580944Y-12632984D02*
X18704753Y-12632984D01*
X18704753Y-12632984D02*
X18638086Y-12709174D01*
X18638086Y-12709174D02*
X18666658Y-12709174D01*
X18666658Y-12709174D02*
X18685705Y-12718698D01*
X18685705Y-12718698D02*
X18695229Y-12728222D01*
X18695229Y-12728222D02*
X18704753Y-12747269D01*
X18704753Y-12747269D02*
X18704753Y-12794888D01*
X18704753Y-12794888D02*
X18695229Y-12813936D01*
X18695229Y-12813936D02*
X18685705Y-12823460D01*
X18685705Y-12823460D02*
X18666658Y-12832984D01*
X18666658Y-12832984D02*
X18609515Y-12832984D01*
X18609515Y-12832984D02*
X18590467Y-12823460D01*
X18590467Y-12823460D02*
X18580944Y-12813936D01*
X18828563Y-12632984D02*
X18847610Y-12632984D01*
X18847610Y-12632984D02*
X18866658Y-12642508D01*
X18866658Y-12642508D02*
X18876182Y-12652031D01*
X18876182Y-12652031D02*
X18885705Y-12671079D01*
X18885705Y-12671079D02*
X18895229Y-12709174D01*
X18895229Y-12709174D02*
X18895229Y-12756793D01*
X18895229Y-12756793D02*
X18885705Y-12794888D01*
X18885705Y-12794888D02*
X18876182Y-12813936D01*
X18876182Y-12813936D02*
X18866658Y-12823460D01*
X18866658Y-12823460D02*
X18847610Y-12832984D01*
X18847610Y-12832984D02*
X18828563Y-12832984D01*
X18828563Y-12832984D02*
X18809515Y-12823460D01*
X18809515Y-12823460D02*
X18799991Y-12813936D01*
X18799991Y-12813936D02*
X18790467Y-12794888D01*
X18790467Y-12794888D02*
X18780944Y-12756793D01*
X18780944Y-12756793D02*
X18780944Y-12709174D01*
X18780944Y-12709174D02*
X18790467Y-12671079D01*
X18790467Y-12671079D02*
X18799991Y-12652031D01*
X18799991Y-12652031D02*
X18809515Y-12642508D01*
X18809515Y-12642508D02*
X18828563Y-12632984D01*
X19019039Y-12632984D02*
X19038086Y-12632984D01*
X19038086Y-12632984D02*
X19057134Y-12642508D01*
X19057134Y-12642508D02*
X19066658Y-12652031D01*
X19066658Y-12652031D02*
X19076182Y-12671079D01*
X19076182Y-12671079D02*
X19085705Y-12709174D01*
X19085705Y-12709174D02*
X19085705Y-12756793D01*
X19085705Y-12756793D02*
X19076182Y-12794888D01*
X19076182Y-12794888D02*
X19066658Y-12813936D01*
X19066658Y-12813936D02*
X19057134Y-12823460D01*
X19057134Y-12823460D02*
X19038086Y-12832984D01*
X19038086Y-12832984D02*
X19019039Y-12832984D01*
X19019039Y-12832984D02*
X18999991Y-12823460D01*
X18999991Y-12823460D02*
X18990467Y-12813936D01*
X18990467Y-12813936D02*
X18980944Y-12794888D01*
X18980944Y-12794888D02*
X18971420Y-12756793D01*
X18971420Y-12756793D02*
X18971420Y-12709174D01*
X18971420Y-12709174D02*
X18980944Y-12671079D01*
X18980944Y-12671079D02*
X18990467Y-12652031D01*
X18990467Y-12652031D02*
X18999991Y-12642508D01*
X18999991Y-12642508D02*
X19019039Y-12632984D01*
X19171420Y-12832984D02*
X19171420Y-12699650D01*
X19171420Y-12718698D02*
X19180944Y-12709174D01*
X19180944Y-12709174D02*
X19199991Y-12699650D01*
X19199991Y-12699650D02*
X19228563Y-12699650D01*
X19228563Y-12699650D02*
X19247610Y-12709174D01*
X19247610Y-12709174D02*
X19257134Y-12728222D01*
X19257134Y-12728222D02*
X19257134Y-12832984D01*
X19257134Y-12728222D02*
X19266658Y-12709174D01*
X19266658Y-12709174D02*
X19285705Y-12699650D01*
X19285705Y-12699650D02*
X19314277Y-12699650D01*
X19314277Y-12699650D02*
X19333325Y-12709174D01*
X19333325Y-12709174D02*
X19342848Y-12728222D01*
X19342848Y-12728222D02*
X19342848Y-12832984D01*
X19438086Y-12832984D02*
X19438086Y-12699650D01*
X19438086Y-12718698D02*
X19447610Y-12709174D01*
X19447610Y-12709174D02*
X19466658Y-12699650D01*
X19466658Y-12699650D02*
X19495229Y-12699650D01*
X19495229Y-12699650D02*
X19514277Y-12709174D01*
X19514277Y-12709174D02*
X19523801Y-12728222D01*
X19523801Y-12728222D02*
X19523801Y-12832984D01*
X19523801Y-12728222D02*
X19533325Y-12709174D01*
X19533325Y-12709174D02*
X19552372Y-12699650D01*
X19552372Y-12699650D02*
X19580944Y-12699650D01*
X19580944Y-12699650D02*
X19599991Y-12709174D01*
X19599991Y-12709174D02*
X19609515Y-12728222D01*
X19609515Y-12728222D02*
X19609515Y-12832984D01*
X19999991Y-12623460D02*
X19828563Y-12880603D01*
X20257134Y-12632984D02*
X20276182Y-12632984D01*
X20276182Y-12632984D02*
X20295229Y-12642508D01*
X20295229Y-12642508D02*
X20304753Y-12652031D01*
X20304753Y-12652031D02*
X20314277Y-12671079D01*
X20314277Y-12671079D02*
X20323801Y-12709174D01*
X20323801Y-12709174D02*
X20323801Y-12756793D01*
X20323801Y-12756793D02*
X20314277Y-12794888D01*
X20314277Y-12794888D02*
X20304753Y-12813936D01*
X20304753Y-12813936D02*
X20295229Y-12823460D01*
X20295229Y-12823460D02*
X20276182Y-12832984D01*
X20276182Y-12832984D02*
X20257134Y-12832984D01*
X20257134Y-12832984D02*
X20238087Y-12823460D01*
X20238087Y-12823460D02*
X20228563Y-12813936D01*
X20228563Y-12813936D02*
X20219039Y-12794888D01*
X20219039Y-12794888D02*
X20209515Y-12756793D01*
X20209515Y-12756793D02*
X20209515Y-12709174D01*
X20209515Y-12709174D02*
X20219039Y-12671079D01*
X20219039Y-12671079D02*
X20228563Y-12652031D01*
X20228563Y-12652031D02*
X20238087Y-12642508D01*
X20238087Y-12642508D02*
X20257134Y-12632984D01*
X20409515Y-12813936D02*
X20419039Y-12823460D01*
X20419039Y-12823460D02*
X20409515Y-12832984D01*
X20409515Y-12832984D02*
X20399991Y-12823460D01*
X20399991Y-12823460D02*
X20409515Y-12813936D01*
X20409515Y-12813936D02*
X20409515Y-12832984D01*
X20542848Y-12632984D02*
X20561896Y-12632984D01*
X20561896Y-12632984D02*
X20580944Y-12642508D01*
X20580944Y-12642508D02*
X20590468Y-12652031D01*
X20590468Y-12652031D02*
X20599991Y-12671079D01*
X20599991Y-12671079D02*
X20609515Y-12709174D01*
X20609515Y-12709174D02*
X20609515Y-12756793D01*
X20609515Y-12756793D02*
X20599991Y-12794888D01*
X20599991Y-12794888D02*
X20590468Y-12813936D01*
X20590468Y-12813936D02*
X20580944Y-12823460D01*
X20580944Y-12823460D02*
X20561896Y-12832984D01*
X20561896Y-12832984D02*
X20542848Y-12832984D01*
X20542848Y-12832984D02*
X20523801Y-12823460D01*
X20523801Y-12823460D02*
X20514277Y-12813936D01*
X20514277Y-12813936D02*
X20504753Y-12794888D01*
X20504753Y-12794888D02*
X20495229Y-12756793D01*
X20495229Y-12756793D02*
X20495229Y-12709174D01*
X20495229Y-12709174D02*
X20504753Y-12671079D01*
X20504753Y-12671079D02*
X20514277Y-12652031D01*
X20514277Y-12652031D02*
X20523801Y-12642508D01*
X20523801Y-12642508D02*
X20542848Y-12632984D01*
X20799991Y-12832984D02*
X20685706Y-12832984D01*
X20742848Y-12832984D02*
X20742848Y-12632984D01*
X20742848Y-12632984D02*
X20723801Y-12661555D01*
X20723801Y-12661555D02*
X20704753Y-12680603D01*
X20704753Y-12680603D02*
X20685706Y-12690127D01*
X20990468Y-12832984D02*
X20876182Y-12832984D01*
X20933325Y-12832984D02*
X20933325Y-12632984D01*
X20933325Y-12632984D02*
X20914277Y-12661555D01*
X20914277Y-12661555D02*
X20895229Y-12680603D01*
X20895229Y-12680603D02*
X20876182Y-12690127D01*
X21104753Y-12718698D02*
X21085706Y-12709174D01*
X21085706Y-12709174D02*
X21076182Y-12699650D01*
X21076182Y-12699650D02*
X21066658Y-12680603D01*
X21066658Y-12680603D02*
X21066658Y-12671079D01*
X21066658Y-12671079D02*
X21076182Y-12652031D01*
X21076182Y-12652031D02*
X21085706Y-12642508D01*
X21085706Y-12642508D02*
X21104753Y-12632984D01*
X21104753Y-12632984D02*
X21142849Y-12632984D01*
X21142849Y-12632984D02*
X21161896Y-12642508D01*
X21161896Y-12642508D02*
X21171420Y-12652031D01*
X21171420Y-12652031D02*
X21180944Y-12671079D01*
X21180944Y-12671079D02*
X21180944Y-12680603D01*
X21180944Y-12680603D02*
X21171420Y-12699650D01*
X21171420Y-12699650D02*
X21161896Y-12709174D01*
X21161896Y-12709174D02*
X21142849Y-12718698D01*
X21142849Y-12718698D02*
X21104753Y-12718698D01*
X21104753Y-12718698D02*
X21085706Y-12728222D01*
X21085706Y-12728222D02*
X21076182Y-12737746D01*
X21076182Y-12737746D02*
X21066658Y-12756793D01*
X21066658Y-12756793D02*
X21066658Y-12794888D01*
X21066658Y-12794888D02*
X21076182Y-12813936D01*
X21076182Y-12813936D02*
X21085706Y-12823460D01*
X21085706Y-12823460D02*
X21104753Y-12832984D01*
X21104753Y-12832984D02*
X21142849Y-12832984D01*
X21142849Y-12832984D02*
X21161896Y-12823460D01*
X21161896Y-12823460D02*
X21171420Y-12813936D01*
X21171420Y-12813936D02*
X21180944Y-12794888D01*
X21180944Y-12794888D02*
X21180944Y-12756793D01*
X21180944Y-12756793D02*
X21171420Y-12737746D01*
X21171420Y-12737746D02*
X21161896Y-12728222D01*
X21161896Y-12728222D02*
X21142849Y-12718698D01*
X21257134Y-12632984D02*
X21257134Y-12671079D01*
X21333325Y-12632984D02*
X21333325Y-12671079D01*
X21628563Y-12909174D02*
X21619039Y-12899650D01*
X21619039Y-12899650D02*
X21599991Y-12871079D01*
X21599991Y-12871079D02*
X21590468Y-12852031D01*
X21590468Y-12852031D02*
X21580944Y-12823460D01*
X21580944Y-12823460D02*
X21571420Y-12775841D01*
X21571420Y-12775841D02*
X21571420Y-12737746D01*
X21571420Y-12737746D02*
X21580944Y-12690127D01*
X21580944Y-12690127D02*
X21590468Y-12661555D01*
X21590468Y-12661555D02*
X21599991Y-12642508D01*
X21599991Y-12642508D02*
X21619039Y-12613936D01*
X21619039Y-12613936D02*
X21628563Y-12604412D01*
X21799991Y-12632984D02*
X21704753Y-12632984D01*
X21704753Y-12632984D02*
X21695230Y-12728222D01*
X21695230Y-12728222D02*
X21704753Y-12718698D01*
X21704753Y-12718698D02*
X21723801Y-12709174D01*
X21723801Y-12709174D02*
X21771420Y-12709174D01*
X21771420Y-12709174D02*
X21790468Y-12718698D01*
X21790468Y-12718698D02*
X21799991Y-12728222D01*
X21799991Y-12728222D02*
X21809515Y-12747269D01*
X21809515Y-12747269D02*
X21809515Y-12794888D01*
X21809515Y-12794888D02*
X21799991Y-12813936D01*
X21799991Y-12813936D02*
X21790468Y-12823460D01*
X21790468Y-12823460D02*
X21771420Y-12832984D01*
X21771420Y-12832984D02*
X21723801Y-12832984D01*
X21723801Y-12832984D02*
X21704753Y-12823460D01*
X21704753Y-12823460D02*
X21695230Y-12813936D01*
X22047611Y-12832984D02*
X22047611Y-12632984D01*
X22133325Y-12832984D02*
X22133325Y-12728222D01*
X22133325Y-12728222D02*
X22123801Y-12709174D01*
X22123801Y-12709174D02*
X22104753Y-12699650D01*
X22104753Y-12699650D02*
X22076182Y-12699650D01*
X22076182Y-12699650D02*
X22057134Y-12709174D01*
X22057134Y-12709174D02*
X22047611Y-12718698D01*
X22257134Y-12832984D02*
X22238087Y-12823460D01*
X22238087Y-12823460D02*
X22228563Y-12813936D01*
X22228563Y-12813936D02*
X22219039Y-12794888D01*
X22219039Y-12794888D02*
X22219039Y-12737746D01*
X22219039Y-12737746D02*
X22228563Y-12718698D01*
X22228563Y-12718698D02*
X22238087Y-12709174D01*
X22238087Y-12709174D02*
X22257134Y-12699650D01*
X22257134Y-12699650D02*
X22285706Y-12699650D01*
X22285706Y-12699650D02*
X22304753Y-12709174D01*
X22304753Y-12709174D02*
X22314277Y-12718698D01*
X22314277Y-12718698D02*
X22323801Y-12737746D01*
X22323801Y-12737746D02*
X22323801Y-12794888D01*
X22323801Y-12794888D02*
X22314277Y-12813936D01*
X22314277Y-12813936D02*
X22304753Y-12823460D01*
X22304753Y-12823460D02*
X22285706Y-12832984D01*
X22285706Y-12832984D02*
X22257134Y-12832984D01*
X22438087Y-12832984D02*
X22419039Y-12823460D01*
X22419039Y-12823460D02*
X22409515Y-12804412D01*
X22409515Y-12804412D02*
X22409515Y-12632984D01*
X22590468Y-12823460D02*
X22571420Y-12832984D01*
X22571420Y-12832984D02*
X22533325Y-12832984D01*
X22533325Y-12832984D02*
X22514277Y-12823460D01*
X22514277Y-12823460D02*
X22504753Y-12804412D01*
X22504753Y-12804412D02*
X22504753Y-12728222D01*
X22504753Y-12728222D02*
X22514277Y-12709174D01*
X22514277Y-12709174D02*
X22533325Y-12699650D01*
X22533325Y-12699650D02*
X22571420Y-12699650D01*
X22571420Y-12699650D02*
X22590468Y-12709174D01*
X22590468Y-12709174D02*
X22599991Y-12728222D01*
X22599991Y-12728222D02*
X22599991Y-12747269D01*
X22599991Y-12747269D02*
X22504753Y-12766317D01*
X22676182Y-12823460D02*
X22695230Y-12832984D01*
X22695230Y-12832984D02*
X22733325Y-12832984D01*
X22733325Y-12832984D02*
X22752372Y-12823460D01*
X22752372Y-12823460D02*
X22761896Y-12804412D01*
X22761896Y-12804412D02*
X22761896Y-12794888D01*
X22761896Y-12794888D02*
X22752372Y-12775841D01*
X22752372Y-12775841D02*
X22733325Y-12766317D01*
X22733325Y-12766317D02*
X22704753Y-12766317D01*
X22704753Y-12766317D02*
X22685706Y-12756793D01*
X22685706Y-12756793D02*
X22676182Y-12737746D01*
X22676182Y-12737746D02*
X22676182Y-12728222D01*
X22676182Y-12728222D02*
X22685706Y-12709174D01*
X22685706Y-12709174D02*
X22704753Y-12699650D01*
X22704753Y-12699650D02*
X22733325Y-12699650D01*
X22733325Y-12699650D02*
X22752372Y-12709174D01*
X22828563Y-12909174D02*
X22838087Y-12899650D01*
X22838087Y-12899650D02*
X22857134Y-12871079D01*
X22857134Y-12871079D02*
X22866658Y-12852031D01*
X22866658Y-12852031D02*
X22876182Y-12823460D01*
X22876182Y-12823460D02*
X22885706Y-12775841D01*
X22885706Y-12775841D02*
X22885706Y-12737746D01*
X22885706Y-12737746D02*
X22876182Y-12690127D01*
X22876182Y-12690127D02*
X22866658Y-12661555D01*
X22866658Y-12661555D02*
X22857134Y-12642508D01*
X22857134Y-12642508D02*
X22838087Y-12613936D01*
X22838087Y-12613936D02*
X22828563Y-12604412D01*
D13*
X18053500Y-13005500D02*
G75*
G02*
X17953500Y-13005500I-50000J0D01*
G01*
X17953500Y-13005500D02*
G75*
G02*
X18053500Y-13005500I50000J0D01*
G01*
D12*
X18419039Y-13096984D02*
X18304753Y-13096984D01*
X18361896Y-13096984D02*
X18361896Y-12896984D01*
X18361896Y-12896984D02*
X18342848Y-12925555D01*
X18342848Y-12925555D02*
X18323801Y-12944603D01*
X18323801Y-12944603D02*
X18304753Y-12954127D01*
X18504753Y-13077936D02*
X18514277Y-13087460D01*
X18514277Y-13087460D02*
X18504753Y-13096984D01*
X18504753Y-13096984D02*
X18495229Y-13087460D01*
X18495229Y-13087460D02*
X18504753Y-13077936D01*
X18504753Y-13077936D02*
X18504753Y-13096984D01*
X18638086Y-12896984D02*
X18657134Y-12896984D01*
X18657134Y-12896984D02*
X18676182Y-12906508D01*
X18676182Y-12906508D02*
X18685705Y-12916031D01*
X18685705Y-12916031D02*
X18695229Y-12935079D01*
X18695229Y-12935079D02*
X18704753Y-12973174D01*
X18704753Y-12973174D02*
X18704753Y-13020793D01*
X18704753Y-13020793D02*
X18695229Y-13058888D01*
X18695229Y-13058888D02*
X18685705Y-13077936D01*
X18685705Y-13077936D02*
X18676182Y-13087460D01*
X18676182Y-13087460D02*
X18657134Y-13096984D01*
X18657134Y-13096984D02*
X18638086Y-13096984D01*
X18638086Y-13096984D02*
X18619039Y-13087460D01*
X18619039Y-13087460D02*
X18609515Y-13077936D01*
X18609515Y-13077936D02*
X18599991Y-13058888D01*
X18599991Y-13058888D02*
X18590467Y-13020793D01*
X18590467Y-13020793D02*
X18590467Y-12973174D01*
X18590467Y-12973174D02*
X18599991Y-12935079D01*
X18599991Y-12935079D02*
X18609515Y-12916031D01*
X18609515Y-12916031D02*
X18619039Y-12906508D01*
X18619039Y-12906508D02*
X18638086Y-12896984D01*
X18828563Y-12896984D02*
X18847610Y-12896984D01*
X18847610Y-12896984D02*
X18866658Y-12906508D01*
X18866658Y-12906508D02*
X18876182Y-12916031D01*
X18876182Y-12916031D02*
X18885705Y-12935079D01*
X18885705Y-12935079D02*
X18895229Y-12973174D01*
X18895229Y-12973174D02*
X18895229Y-13020793D01*
X18895229Y-13020793D02*
X18885705Y-13058888D01*
X18885705Y-13058888D02*
X18876182Y-13077936D01*
X18876182Y-13077936D02*
X18866658Y-13087460D01*
X18866658Y-13087460D02*
X18847610Y-13096984D01*
X18847610Y-13096984D02*
X18828563Y-13096984D01*
X18828563Y-13096984D02*
X18809515Y-13087460D01*
X18809515Y-13087460D02*
X18799991Y-13077936D01*
X18799991Y-13077936D02*
X18790467Y-13058888D01*
X18790467Y-13058888D02*
X18780944Y-13020793D01*
X18780944Y-13020793D02*
X18780944Y-12973174D01*
X18780944Y-12973174D02*
X18790467Y-12935079D01*
X18790467Y-12935079D02*
X18799991Y-12916031D01*
X18799991Y-12916031D02*
X18809515Y-12906508D01*
X18809515Y-12906508D02*
X18828563Y-12896984D01*
X19019039Y-12896984D02*
X19038086Y-12896984D01*
X19038086Y-12896984D02*
X19057134Y-12906508D01*
X19057134Y-12906508D02*
X19066658Y-12916031D01*
X19066658Y-12916031D02*
X19076182Y-12935079D01*
X19076182Y-12935079D02*
X19085705Y-12973174D01*
X19085705Y-12973174D02*
X19085705Y-13020793D01*
X19085705Y-13020793D02*
X19076182Y-13058888D01*
X19076182Y-13058888D02*
X19066658Y-13077936D01*
X19066658Y-13077936D02*
X19057134Y-13087460D01*
X19057134Y-13087460D02*
X19038086Y-13096984D01*
X19038086Y-13096984D02*
X19019039Y-13096984D01*
X19019039Y-13096984D02*
X18999991Y-13087460D01*
X18999991Y-13087460D02*
X18990467Y-13077936D01*
X18990467Y-13077936D02*
X18980944Y-13058888D01*
X18980944Y-13058888D02*
X18971420Y-13020793D01*
X18971420Y-13020793D02*
X18971420Y-12973174D01*
X18971420Y-12973174D02*
X18980944Y-12935079D01*
X18980944Y-12935079D02*
X18990467Y-12916031D01*
X18990467Y-12916031D02*
X18999991Y-12906508D01*
X18999991Y-12906508D02*
X19019039Y-12896984D01*
X19171420Y-13096984D02*
X19171420Y-12963650D01*
X19171420Y-12982698D02*
X19180944Y-12973174D01*
X19180944Y-12973174D02*
X19199991Y-12963650D01*
X19199991Y-12963650D02*
X19228563Y-12963650D01*
X19228563Y-12963650D02*
X19247610Y-12973174D01*
X19247610Y-12973174D02*
X19257134Y-12992222D01*
X19257134Y-12992222D02*
X19257134Y-13096984D01*
X19257134Y-12992222D02*
X19266658Y-12973174D01*
X19266658Y-12973174D02*
X19285705Y-12963650D01*
X19285705Y-12963650D02*
X19314277Y-12963650D01*
X19314277Y-12963650D02*
X19333325Y-12973174D01*
X19333325Y-12973174D02*
X19342848Y-12992222D01*
X19342848Y-12992222D02*
X19342848Y-13096984D01*
X19438086Y-13096984D02*
X19438086Y-12963650D01*
X19438086Y-12982698D02*
X19447610Y-12973174D01*
X19447610Y-12973174D02*
X19466658Y-12963650D01*
X19466658Y-12963650D02*
X19495229Y-12963650D01*
X19495229Y-12963650D02*
X19514277Y-12973174D01*
X19514277Y-12973174D02*
X19523801Y-12992222D01*
X19523801Y-12992222D02*
X19523801Y-13096984D01*
X19523801Y-12992222D02*
X19533325Y-12973174D01*
X19533325Y-12973174D02*
X19552372Y-12963650D01*
X19552372Y-12963650D02*
X19580944Y-12963650D01*
X19580944Y-12963650D02*
X19599991Y-12973174D01*
X19599991Y-12973174D02*
X19609515Y-12992222D01*
X19609515Y-12992222D02*
X19609515Y-13096984D01*
X19999991Y-12887460D02*
X19828563Y-13144603D01*
X20257134Y-12896984D02*
X20276182Y-12896984D01*
X20276182Y-12896984D02*
X20295229Y-12906508D01*
X20295229Y-12906508D02*
X20304753Y-12916031D01*
X20304753Y-12916031D02*
X20314277Y-12935079D01*
X20314277Y-12935079D02*
X20323801Y-12973174D01*
X20323801Y-12973174D02*
X20323801Y-13020793D01*
X20323801Y-13020793D02*
X20314277Y-13058888D01*
X20314277Y-13058888D02*
X20304753Y-13077936D01*
X20304753Y-13077936D02*
X20295229Y-13087460D01*
X20295229Y-13087460D02*
X20276182Y-13096984D01*
X20276182Y-13096984D02*
X20257134Y-13096984D01*
X20257134Y-13096984D02*
X20238087Y-13087460D01*
X20238087Y-13087460D02*
X20228563Y-13077936D01*
X20228563Y-13077936D02*
X20219039Y-13058888D01*
X20219039Y-13058888D02*
X20209515Y-13020793D01*
X20209515Y-13020793D02*
X20209515Y-12973174D01*
X20209515Y-12973174D02*
X20219039Y-12935079D01*
X20219039Y-12935079D02*
X20228563Y-12916031D01*
X20228563Y-12916031D02*
X20238087Y-12906508D01*
X20238087Y-12906508D02*
X20257134Y-12896984D01*
X20409515Y-13077936D02*
X20419039Y-13087460D01*
X20419039Y-13087460D02*
X20409515Y-13096984D01*
X20409515Y-13096984D02*
X20399991Y-13087460D01*
X20399991Y-13087460D02*
X20409515Y-13077936D01*
X20409515Y-13077936D02*
X20409515Y-13096984D01*
X20542848Y-12896984D02*
X20561896Y-12896984D01*
X20561896Y-12896984D02*
X20580944Y-12906508D01*
X20580944Y-12906508D02*
X20590468Y-12916031D01*
X20590468Y-12916031D02*
X20599991Y-12935079D01*
X20599991Y-12935079D02*
X20609515Y-12973174D01*
X20609515Y-12973174D02*
X20609515Y-13020793D01*
X20609515Y-13020793D02*
X20599991Y-13058888D01*
X20599991Y-13058888D02*
X20590468Y-13077936D01*
X20590468Y-13077936D02*
X20580944Y-13087460D01*
X20580944Y-13087460D02*
X20561896Y-13096984D01*
X20561896Y-13096984D02*
X20542848Y-13096984D01*
X20542848Y-13096984D02*
X20523801Y-13087460D01*
X20523801Y-13087460D02*
X20514277Y-13077936D01*
X20514277Y-13077936D02*
X20504753Y-13058888D01*
X20504753Y-13058888D02*
X20495229Y-13020793D01*
X20495229Y-13020793D02*
X20495229Y-12973174D01*
X20495229Y-12973174D02*
X20504753Y-12935079D01*
X20504753Y-12935079D02*
X20514277Y-12916031D01*
X20514277Y-12916031D02*
X20523801Y-12906508D01*
X20523801Y-12906508D02*
X20542848Y-12896984D01*
X20676182Y-12896984D02*
X20799991Y-12896984D01*
X20799991Y-12896984D02*
X20733325Y-12973174D01*
X20733325Y-12973174D02*
X20761896Y-12973174D01*
X20761896Y-12973174D02*
X20780944Y-12982698D01*
X20780944Y-12982698D02*
X20790468Y-12992222D01*
X20790468Y-12992222D02*
X20799991Y-13011269D01*
X20799991Y-13011269D02*
X20799991Y-13058888D01*
X20799991Y-13058888D02*
X20790468Y-13077936D01*
X20790468Y-13077936D02*
X20780944Y-13087460D01*
X20780944Y-13087460D02*
X20761896Y-13096984D01*
X20761896Y-13096984D02*
X20704753Y-13096984D01*
X20704753Y-13096984D02*
X20685706Y-13087460D01*
X20685706Y-13087460D02*
X20676182Y-13077936D01*
X20895229Y-13096984D02*
X20933325Y-13096984D01*
X20933325Y-13096984D02*
X20952372Y-13087460D01*
X20952372Y-13087460D02*
X20961896Y-13077936D01*
X20961896Y-13077936D02*
X20980944Y-13049365D01*
X20980944Y-13049365D02*
X20990468Y-13011269D01*
X20990468Y-13011269D02*
X20990468Y-12935079D01*
X20990468Y-12935079D02*
X20980944Y-12916031D01*
X20980944Y-12916031D02*
X20971420Y-12906508D01*
X20971420Y-12906508D02*
X20952372Y-12896984D01*
X20952372Y-12896984D02*
X20914277Y-12896984D01*
X20914277Y-12896984D02*
X20895229Y-12906508D01*
X20895229Y-12906508D02*
X20885706Y-12916031D01*
X20885706Y-12916031D02*
X20876182Y-12935079D01*
X20876182Y-12935079D02*
X20876182Y-12982698D01*
X20876182Y-12982698D02*
X20885706Y-13001746D01*
X20885706Y-13001746D02*
X20895229Y-13011269D01*
X20895229Y-13011269D02*
X20914277Y-13020793D01*
X20914277Y-13020793D02*
X20952372Y-13020793D01*
X20952372Y-13020793D02*
X20971420Y-13011269D01*
X20971420Y-13011269D02*
X20980944Y-13001746D01*
X20980944Y-13001746D02*
X20990468Y-12982698D01*
X21161896Y-12963650D02*
X21161896Y-13096984D01*
X21114277Y-12887460D02*
X21066658Y-13030317D01*
X21066658Y-13030317D02*
X21190468Y-13030317D01*
X21257134Y-12896984D02*
X21257134Y-12935079D01*
X21333325Y-12896984D02*
X21333325Y-12935079D01*
X21628563Y-13173174D02*
X21619039Y-13163650D01*
X21619039Y-13163650D02*
X21599991Y-13135079D01*
X21599991Y-13135079D02*
X21590468Y-13116031D01*
X21590468Y-13116031D02*
X21580944Y-13087460D01*
X21580944Y-13087460D02*
X21571420Y-13039841D01*
X21571420Y-13039841D02*
X21571420Y-13001746D01*
X21571420Y-13001746D02*
X21580944Y-12954127D01*
X21580944Y-12954127D02*
X21590468Y-12925555D01*
X21590468Y-12925555D02*
X21599991Y-12906508D01*
X21599991Y-12906508D02*
X21619039Y-12877936D01*
X21619039Y-12877936D02*
X21628563Y-12868412D01*
X21809515Y-13096984D02*
X21695230Y-13096984D01*
X21752372Y-13096984D02*
X21752372Y-12896984D01*
X21752372Y-12896984D02*
X21733325Y-12925555D01*
X21733325Y-12925555D02*
X21714277Y-12944603D01*
X21714277Y-12944603D02*
X21695230Y-12954127D01*
X21933325Y-12896984D02*
X21952372Y-12896984D01*
X21952372Y-12896984D02*
X21971420Y-12906508D01*
X21971420Y-12906508D02*
X21980944Y-12916031D01*
X21980944Y-12916031D02*
X21990468Y-12935079D01*
X21990468Y-12935079D02*
X21999991Y-12973174D01*
X21999991Y-12973174D02*
X21999991Y-13020793D01*
X21999991Y-13020793D02*
X21990468Y-13058888D01*
X21990468Y-13058888D02*
X21980944Y-13077936D01*
X21980944Y-13077936D02*
X21971420Y-13087460D01*
X21971420Y-13087460D02*
X21952372Y-13096984D01*
X21952372Y-13096984D02*
X21933325Y-13096984D01*
X21933325Y-13096984D02*
X21914277Y-13087460D01*
X21914277Y-13087460D02*
X21904753Y-13077936D01*
X21904753Y-13077936D02*
X21895230Y-13058888D01*
X21895230Y-13058888D02*
X21885706Y-13020793D01*
X21885706Y-13020793D02*
X21885706Y-12973174D01*
X21885706Y-12973174D02*
X21895230Y-12935079D01*
X21895230Y-12935079D02*
X21904753Y-12916031D01*
X21904753Y-12916031D02*
X21914277Y-12906508D01*
X21914277Y-12906508D02*
X21933325Y-12896984D01*
X22238087Y-13096984D02*
X22238087Y-12896984D01*
X22323801Y-13096984D02*
X22323801Y-12992222D01*
X22323801Y-12992222D02*
X22314277Y-12973174D01*
X22314277Y-12973174D02*
X22295230Y-12963650D01*
X22295230Y-12963650D02*
X22266658Y-12963650D01*
X22266658Y-12963650D02*
X22247611Y-12973174D01*
X22247611Y-12973174D02*
X22238087Y-12982698D01*
X22447610Y-13096984D02*
X22428563Y-13087460D01*
X22428563Y-13087460D02*
X22419039Y-13077936D01*
X22419039Y-13077936D02*
X22409515Y-13058888D01*
X22409515Y-13058888D02*
X22409515Y-13001746D01*
X22409515Y-13001746D02*
X22419039Y-12982698D01*
X22419039Y-12982698D02*
X22428563Y-12973174D01*
X22428563Y-12973174D02*
X22447610Y-12963650D01*
X22447610Y-12963650D02*
X22476182Y-12963650D01*
X22476182Y-12963650D02*
X22495230Y-12973174D01*
X22495230Y-12973174D02*
X22504753Y-12982698D01*
X22504753Y-12982698D02*
X22514277Y-13001746D01*
X22514277Y-13001746D02*
X22514277Y-13058888D01*
X22514277Y-13058888D02*
X22504753Y-13077936D01*
X22504753Y-13077936D02*
X22495230Y-13087460D01*
X22495230Y-13087460D02*
X22476182Y-13096984D01*
X22476182Y-13096984D02*
X22447610Y-13096984D01*
X22628563Y-13096984D02*
X22609515Y-13087460D01*
X22609515Y-13087460D02*
X22599991Y-13068412D01*
X22599991Y-13068412D02*
X22599991Y-12896984D01*
X22780944Y-13087460D02*
X22761896Y-13096984D01*
X22761896Y-13096984D02*
X22723801Y-13096984D01*
X22723801Y-13096984D02*
X22704753Y-13087460D01*
X22704753Y-13087460D02*
X22695230Y-13068412D01*
X22695230Y-13068412D02*
X22695230Y-12992222D01*
X22695230Y-12992222D02*
X22704753Y-12973174D01*
X22704753Y-12973174D02*
X22723801Y-12963650D01*
X22723801Y-12963650D02*
X22761896Y-12963650D01*
X22761896Y-12963650D02*
X22780944Y-12973174D01*
X22780944Y-12973174D02*
X22790468Y-12992222D01*
X22790468Y-12992222D02*
X22790468Y-13011269D01*
X22790468Y-13011269D02*
X22695230Y-13030317D01*
X22866658Y-13087460D02*
X22885706Y-13096984D01*
X22885706Y-13096984D02*
X22923801Y-13096984D01*
X22923801Y-13096984D02*
X22942849Y-13087460D01*
X22942849Y-13087460D02*
X22952372Y-13068412D01*
X22952372Y-13068412D02*
X22952372Y-13058888D01*
X22952372Y-13058888D02*
X22942849Y-13039841D01*
X22942849Y-13039841D02*
X22923801Y-13030317D01*
X22923801Y-13030317D02*
X22895230Y-13030317D01*
X22895230Y-13030317D02*
X22876182Y-13020793D01*
X22876182Y-13020793D02*
X22866658Y-13001746D01*
X22866658Y-13001746D02*
X22866658Y-12992222D01*
X22866658Y-12992222D02*
X22876182Y-12973174D01*
X22876182Y-12973174D02*
X22895230Y-12963650D01*
X22895230Y-12963650D02*
X22923801Y-12963650D01*
X22923801Y-12963650D02*
X22942849Y-12973174D01*
X23019039Y-13173174D02*
X23028563Y-13163650D01*
X23028563Y-13163650D02*
X23047611Y-13135079D01*
X23047611Y-13135079D02*
X23057134Y-13116031D01*
X23057134Y-13116031D02*
X23066658Y-13087460D01*
X23066658Y-13087460D02*
X23076182Y-13039841D01*
X23076182Y-13039841D02*
X23076182Y-13001746D01*
X23076182Y-13001746D02*
X23066658Y-12954127D01*
X23066658Y-12954127D02*
X23057134Y-12925555D01*
X23057134Y-12925555D02*
X23047611Y-12906508D01*
X23047611Y-12906508D02*
X23028563Y-12877936D01*
X23028563Y-12877936D02*
X23019039Y-12868412D01*
X17953500Y-13169500D02*
X17953500Y-13369500D01*
X17853500Y-13269500D02*
X18053500Y-13269500D01*
X18295229Y-13160984D02*
X18419039Y-13160984D01*
X18419039Y-13160984D02*
X18352372Y-13237174D01*
X18352372Y-13237174D02*
X18380944Y-13237174D01*
X18380944Y-13237174D02*
X18399991Y-13246698D01*
X18399991Y-13246698D02*
X18409515Y-13256222D01*
X18409515Y-13256222D02*
X18419039Y-13275269D01*
X18419039Y-13275269D02*
X18419039Y-13322888D01*
X18419039Y-13322888D02*
X18409515Y-13341936D01*
X18409515Y-13341936D02*
X18399991Y-13351460D01*
X18399991Y-13351460D02*
X18380944Y-13360984D01*
X18380944Y-13360984D02*
X18323801Y-13360984D01*
X18323801Y-13360984D02*
X18304753Y-13351460D01*
X18304753Y-13351460D02*
X18295229Y-13341936D01*
X18504753Y-13341936D02*
X18514277Y-13351460D01*
X18514277Y-13351460D02*
X18504753Y-13360984D01*
X18504753Y-13360984D02*
X18495229Y-13351460D01*
X18495229Y-13351460D02*
X18504753Y-13341936D01*
X18504753Y-13341936D02*
X18504753Y-13360984D01*
X18590467Y-13180031D02*
X18599991Y-13170508D01*
X18599991Y-13170508D02*
X18619039Y-13160984D01*
X18619039Y-13160984D02*
X18666658Y-13160984D01*
X18666658Y-13160984D02*
X18685705Y-13170508D01*
X18685705Y-13170508D02*
X18695229Y-13180031D01*
X18695229Y-13180031D02*
X18704753Y-13199079D01*
X18704753Y-13199079D02*
X18704753Y-13218127D01*
X18704753Y-13218127D02*
X18695229Y-13246698D01*
X18695229Y-13246698D02*
X18580944Y-13360984D01*
X18580944Y-13360984D02*
X18704753Y-13360984D01*
X18828563Y-13160984D02*
X18847610Y-13160984D01*
X18847610Y-13160984D02*
X18866658Y-13170508D01*
X18866658Y-13170508D02*
X18876182Y-13180031D01*
X18876182Y-13180031D02*
X18885705Y-13199079D01*
X18885705Y-13199079D02*
X18895229Y-13237174D01*
X18895229Y-13237174D02*
X18895229Y-13284793D01*
X18895229Y-13284793D02*
X18885705Y-13322888D01*
X18885705Y-13322888D02*
X18876182Y-13341936D01*
X18876182Y-13341936D02*
X18866658Y-13351460D01*
X18866658Y-13351460D02*
X18847610Y-13360984D01*
X18847610Y-13360984D02*
X18828563Y-13360984D01*
X18828563Y-13360984D02*
X18809515Y-13351460D01*
X18809515Y-13351460D02*
X18799991Y-13341936D01*
X18799991Y-13341936D02*
X18790467Y-13322888D01*
X18790467Y-13322888D02*
X18780944Y-13284793D01*
X18780944Y-13284793D02*
X18780944Y-13237174D01*
X18780944Y-13237174D02*
X18790467Y-13199079D01*
X18790467Y-13199079D02*
X18799991Y-13180031D01*
X18799991Y-13180031D02*
X18809515Y-13170508D01*
X18809515Y-13170508D02*
X18828563Y-13160984D01*
X19019039Y-13160984D02*
X19038086Y-13160984D01*
X19038086Y-13160984D02*
X19057134Y-13170508D01*
X19057134Y-13170508D02*
X19066658Y-13180031D01*
X19066658Y-13180031D02*
X19076182Y-13199079D01*
X19076182Y-13199079D02*
X19085705Y-13237174D01*
X19085705Y-13237174D02*
X19085705Y-13284793D01*
X19085705Y-13284793D02*
X19076182Y-13322888D01*
X19076182Y-13322888D02*
X19066658Y-13341936D01*
X19066658Y-13341936D02*
X19057134Y-13351460D01*
X19057134Y-13351460D02*
X19038086Y-13360984D01*
X19038086Y-13360984D02*
X19019039Y-13360984D01*
X19019039Y-13360984D02*
X18999991Y-13351460D01*
X18999991Y-13351460D02*
X18990467Y-13341936D01*
X18990467Y-13341936D02*
X18980944Y-13322888D01*
X18980944Y-13322888D02*
X18971420Y-13284793D01*
X18971420Y-13284793D02*
X18971420Y-13237174D01*
X18971420Y-13237174D02*
X18980944Y-13199079D01*
X18980944Y-13199079D02*
X18990467Y-13180031D01*
X18990467Y-13180031D02*
X18999991Y-13170508D01*
X18999991Y-13170508D02*
X19019039Y-13160984D01*
X19171420Y-13360984D02*
X19171420Y-13227650D01*
X19171420Y-13246698D02*
X19180944Y-13237174D01*
X19180944Y-13237174D02*
X19199991Y-13227650D01*
X19199991Y-13227650D02*
X19228563Y-13227650D01*
X19228563Y-13227650D02*
X19247610Y-13237174D01*
X19247610Y-13237174D02*
X19257134Y-13256222D01*
X19257134Y-13256222D02*
X19257134Y-13360984D01*
X19257134Y-13256222D02*
X19266658Y-13237174D01*
X19266658Y-13237174D02*
X19285705Y-13227650D01*
X19285705Y-13227650D02*
X19314277Y-13227650D01*
X19314277Y-13227650D02*
X19333325Y-13237174D01*
X19333325Y-13237174D02*
X19342848Y-13256222D01*
X19342848Y-13256222D02*
X19342848Y-13360984D01*
X19438086Y-13360984D02*
X19438086Y-13227650D01*
X19438086Y-13246698D02*
X19447610Y-13237174D01*
X19447610Y-13237174D02*
X19466658Y-13227650D01*
X19466658Y-13227650D02*
X19495229Y-13227650D01*
X19495229Y-13227650D02*
X19514277Y-13237174D01*
X19514277Y-13237174D02*
X19523801Y-13256222D01*
X19523801Y-13256222D02*
X19523801Y-13360984D01*
X19523801Y-13256222D02*
X19533325Y-13237174D01*
X19533325Y-13237174D02*
X19552372Y-13227650D01*
X19552372Y-13227650D02*
X19580944Y-13227650D01*
X19580944Y-13227650D02*
X19599991Y-13237174D01*
X19599991Y-13237174D02*
X19609515Y-13256222D01*
X19609515Y-13256222D02*
X19609515Y-13360984D01*
X19999991Y-13151460D02*
X19828563Y-13408603D01*
X20257134Y-13160984D02*
X20276182Y-13160984D01*
X20276182Y-13160984D02*
X20295229Y-13170508D01*
X20295229Y-13170508D02*
X20304753Y-13180031D01*
X20304753Y-13180031D02*
X20314277Y-13199079D01*
X20314277Y-13199079D02*
X20323801Y-13237174D01*
X20323801Y-13237174D02*
X20323801Y-13284793D01*
X20323801Y-13284793D02*
X20314277Y-13322888D01*
X20314277Y-13322888D02*
X20304753Y-13341936D01*
X20304753Y-13341936D02*
X20295229Y-13351460D01*
X20295229Y-13351460D02*
X20276182Y-13360984D01*
X20276182Y-13360984D02*
X20257134Y-13360984D01*
X20257134Y-13360984D02*
X20238087Y-13351460D01*
X20238087Y-13351460D02*
X20228563Y-13341936D01*
X20228563Y-13341936D02*
X20219039Y-13322888D01*
X20219039Y-13322888D02*
X20209515Y-13284793D01*
X20209515Y-13284793D02*
X20209515Y-13237174D01*
X20209515Y-13237174D02*
X20219039Y-13199079D01*
X20219039Y-13199079D02*
X20228563Y-13180031D01*
X20228563Y-13180031D02*
X20238087Y-13170508D01*
X20238087Y-13170508D02*
X20257134Y-13160984D01*
X20409515Y-13341936D02*
X20419039Y-13351460D01*
X20419039Y-13351460D02*
X20409515Y-13360984D01*
X20409515Y-13360984D02*
X20399991Y-13351460D01*
X20399991Y-13351460D02*
X20409515Y-13341936D01*
X20409515Y-13341936D02*
X20409515Y-13360984D01*
X20609515Y-13360984D02*
X20495229Y-13360984D01*
X20552372Y-13360984D02*
X20552372Y-13160984D01*
X20552372Y-13160984D02*
X20533325Y-13189555D01*
X20533325Y-13189555D02*
X20514277Y-13208603D01*
X20514277Y-13208603D02*
X20495229Y-13218127D01*
X20685706Y-13180031D02*
X20695229Y-13170508D01*
X20695229Y-13170508D02*
X20714277Y-13160984D01*
X20714277Y-13160984D02*
X20761896Y-13160984D01*
X20761896Y-13160984D02*
X20780944Y-13170508D01*
X20780944Y-13170508D02*
X20790468Y-13180031D01*
X20790468Y-13180031D02*
X20799991Y-13199079D01*
X20799991Y-13199079D02*
X20799991Y-13218127D01*
X20799991Y-13218127D02*
X20790468Y-13246698D01*
X20790468Y-13246698D02*
X20676182Y-13360984D01*
X20676182Y-13360984D02*
X20799991Y-13360984D01*
X20971420Y-13160984D02*
X20933325Y-13160984D01*
X20933325Y-13160984D02*
X20914277Y-13170508D01*
X20914277Y-13170508D02*
X20904753Y-13180031D01*
X20904753Y-13180031D02*
X20885706Y-13208603D01*
X20885706Y-13208603D02*
X20876182Y-13246698D01*
X20876182Y-13246698D02*
X20876182Y-13322888D01*
X20876182Y-13322888D02*
X20885706Y-13341936D01*
X20885706Y-13341936D02*
X20895229Y-13351460D01*
X20895229Y-13351460D02*
X20914277Y-13360984D01*
X20914277Y-13360984D02*
X20952372Y-13360984D01*
X20952372Y-13360984D02*
X20971420Y-13351460D01*
X20971420Y-13351460D02*
X20980944Y-13341936D01*
X20980944Y-13341936D02*
X20990468Y-13322888D01*
X20990468Y-13322888D02*
X20990468Y-13275269D01*
X20990468Y-13275269D02*
X20980944Y-13256222D01*
X20980944Y-13256222D02*
X20971420Y-13246698D01*
X20971420Y-13246698D02*
X20952372Y-13237174D01*
X20952372Y-13237174D02*
X20914277Y-13237174D01*
X20914277Y-13237174D02*
X20895229Y-13246698D01*
X20895229Y-13246698D02*
X20885706Y-13256222D01*
X20885706Y-13256222D02*
X20876182Y-13275269D01*
X21114277Y-13160984D02*
X21133325Y-13160984D01*
X21133325Y-13160984D02*
X21152372Y-13170508D01*
X21152372Y-13170508D02*
X21161896Y-13180031D01*
X21161896Y-13180031D02*
X21171420Y-13199079D01*
X21171420Y-13199079D02*
X21180944Y-13237174D01*
X21180944Y-13237174D02*
X21180944Y-13284793D01*
X21180944Y-13284793D02*
X21171420Y-13322888D01*
X21171420Y-13322888D02*
X21161896Y-13341936D01*
X21161896Y-13341936D02*
X21152372Y-13351460D01*
X21152372Y-13351460D02*
X21133325Y-13360984D01*
X21133325Y-13360984D02*
X21114277Y-13360984D01*
X21114277Y-13360984D02*
X21095229Y-13351460D01*
X21095229Y-13351460D02*
X21085706Y-13341936D01*
X21085706Y-13341936D02*
X21076182Y-13322888D01*
X21076182Y-13322888D02*
X21066658Y-13284793D01*
X21066658Y-13284793D02*
X21066658Y-13237174D01*
X21066658Y-13237174D02*
X21076182Y-13199079D01*
X21076182Y-13199079D02*
X21085706Y-13180031D01*
X21085706Y-13180031D02*
X21095229Y-13170508D01*
X21095229Y-13170508D02*
X21114277Y-13160984D01*
X21257134Y-13160984D02*
X21257134Y-13199079D01*
X21333325Y-13160984D02*
X21333325Y-13199079D01*
X21628563Y-13437174D02*
X21619039Y-13427650D01*
X21619039Y-13427650D02*
X21599991Y-13399079D01*
X21599991Y-13399079D02*
X21590468Y-13380031D01*
X21590468Y-13380031D02*
X21580944Y-13351460D01*
X21580944Y-13351460D02*
X21571420Y-13303841D01*
X21571420Y-13303841D02*
X21571420Y-13265746D01*
X21571420Y-13265746D02*
X21580944Y-13218127D01*
X21580944Y-13218127D02*
X21590468Y-13189555D01*
X21590468Y-13189555D02*
X21599991Y-13170508D01*
X21599991Y-13170508D02*
X21619039Y-13141936D01*
X21619039Y-13141936D02*
X21628563Y-13132412D01*
X21790468Y-13227650D02*
X21790468Y-13360984D01*
X21742849Y-13151460D02*
X21695230Y-13294317D01*
X21695230Y-13294317D02*
X21819039Y-13294317D01*
X22047611Y-13360984D02*
X22047611Y-13160984D01*
X22133325Y-13360984D02*
X22133325Y-13256222D01*
X22133325Y-13256222D02*
X22123801Y-13237174D01*
X22123801Y-13237174D02*
X22104753Y-13227650D01*
X22104753Y-13227650D02*
X22076182Y-13227650D01*
X22076182Y-13227650D02*
X22057134Y-13237174D01*
X22057134Y-13237174D02*
X22047611Y-13246698D01*
X22257134Y-13360984D02*
X22238087Y-13351460D01*
X22238087Y-13351460D02*
X22228563Y-13341936D01*
X22228563Y-13341936D02*
X22219039Y-13322888D01*
X22219039Y-13322888D02*
X22219039Y-13265746D01*
X22219039Y-13265746D02*
X22228563Y-13246698D01*
X22228563Y-13246698D02*
X22238087Y-13237174D01*
X22238087Y-13237174D02*
X22257134Y-13227650D01*
X22257134Y-13227650D02*
X22285706Y-13227650D01*
X22285706Y-13227650D02*
X22304753Y-13237174D01*
X22304753Y-13237174D02*
X22314277Y-13246698D01*
X22314277Y-13246698D02*
X22323801Y-13265746D01*
X22323801Y-13265746D02*
X22323801Y-13322888D01*
X22323801Y-13322888D02*
X22314277Y-13341936D01*
X22314277Y-13341936D02*
X22304753Y-13351460D01*
X22304753Y-13351460D02*
X22285706Y-13360984D01*
X22285706Y-13360984D02*
X22257134Y-13360984D01*
X22438087Y-13360984D02*
X22419039Y-13351460D01*
X22419039Y-13351460D02*
X22409515Y-13332412D01*
X22409515Y-13332412D02*
X22409515Y-13160984D01*
X22590468Y-13351460D02*
X22571420Y-13360984D01*
X22571420Y-13360984D02*
X22533325Y-13360984D01*
X22533325Y-13360984D02*
X22514277Y-13351460D01*
X22514277Y-13351460D02*
X22504753Y-13332412D01*
X22504753Y-13332412D02*
X22504753Y-13256222D01*
X22504753Y-13256222D02*
X22514277Y-13237174D01*
X22514277Y-13237174D02*
X22533325Y-13227650D01*
X22533325Y-13227650D02*
X22571420Y-13227650D01*
X22571420Y-13227650D02*
X22590468Y-13237174D01*
X22590468Y-13237174D02*
X22599991Y-13256222D01*
X22599991Y-13256222D02*
X22599991Y-13275269D01*
X22599991Y-13275269D02*
X22504753Y-13294317D01*
X22676182Y-13351460D02*
X22695230Y-13360984D01*
X22695230Y-13360984D02*
X22733325Y-13360984D01*
X22733325Y-13360984D02*
X22752372Y-13351460D01*
X22752372Y-13351460D02*
X22761896Y-13332412D01*
X22761896Y-13332412D02*
X22761896Y-13322888D01*
X22761896Y-13322888D02*
X22752372Y-13303841D01*
X22752372Y-13303841D02*
X22733325Y-13294317D01*
X22733325Y-13294317D02*
X22704753Y-13294317D01*
X22704753Y-13294317D02*
X22685706Y-13284793D01*
X22685706Y-13284793D02*
X22676182Y-13265746D01*
X22676182Y-13265746D02*
X22676182Y-13256222D01*
X22676182Y-13256222D02*
X22685706Y-13237174D01*
X22685706Y-13237174D02*
X22704753Y-13227650D01*
X22704753Y-13227650D02*
X22733325Y-13227650D01*
X22733325Y-13227650D02*
X22752372Y-13237174D01*
X22828563Y-13437174D02*
X22838087Y-13427650D01*
X22838087Y-13427650D02*
X22857134Y-13399079D01*
X22857134Y-13399079D02*
X22866658Y-13380031D01*
X22866658Y-13380031D02*
X22876182Y-13351460D01*
X22876182Y-13351460D02*
X22885706Y-13303841D01*
X22885706Y-13303841D02*
X22885706Y-13265746D01*
X22885706Y-13265746D02*
X22876182Y-13218127D01*
X22876182Y-13218127D02*
X22866658Y-13189555D01*
X22866658Y-13189555D02*
X22857134Y-13170508D01*
X22857134Y-13170508D02*
X22838087Y-13141936D01*
X22838087Y-13141936D02*
X22828563Y-13132412D01*
M02*
