%TF.GenerationSoftware,KiCad,Pcbnew,8.0.6*%
%TF.CreationDate,2026-01-06T18:32:01-08:00*%
%TF.ProjectId,qfn-programmer,71666e2d-7072-46f6-9772-616d6d65722e,rev?*%
%TF.SameCoordinates,Original*%
%TF.FileFunction,Drillmap*%
%TF.FilePolarity,Positive*%
%FSLAX45Y45*%
G04 Gerber Fmt 4.5, Leading zero omitted, Abs format (unit mm)*
G04 Created by KiCad (PCBNEW 8.0.6) date 2026-01-06 18:32:01*
%MOMM*%
%LPD*%
G01*
G04 APERTURE LIST*
%ADD10C,0.010050*%
%ADD11C,0.050000*%
%ADD12C,0.200000*%
G04 APERTURE END LIST*
D10*
X25318802Y-6310000D02*
G75*
G02*
X25317797Y-6310000I-503J0D01*
G01*
X25317797Y-6310000D02*
G75*
G02*
X25318802Y-6310000I503J0D01*
G01*
X25316502Y-11692000D02*
G75*
G02*
X25315497Y-11692000I-503J0D01*
G01*
X25315497Y-11692000D02*
G75*
G02*
X25316502Y-11692000I503J0D01*
G01*
D11*
X18056000Y-6288000D02*
X26384000Y-6288000D01*
X26384000Y-12099000D01*
X18056000Y-12099000D01*
X18056000Y-6288000D01*
D12*
X18314277Y-12412984D02*
X18314277Y-12212984D01*
X18314277Y-12212984D02*
X18361896Y-12212984D01*
X18361896Y-12212984D02*
X18390467Y-12222508D01*
X18390467Y-12222508D02*
X18409515Y-12241555D01*
X18409515Y-12241555D02*
X18419039Y-12260603D01*
X18419039Y-12260603D02*
X18428563Y-12298698D01*
X18428563Y-12298698D02*
X18428563Y-12327269D01*
X18428563Y-12327269D02*
X18419039Y-12365365D01*
X18419039Y-12365365D02*
X18409515Y-12384412D01*
X18409515Y-12384412D02*
X18390467Y-12403460D01*
X18390467Y-12403460D02*
X18361896Y-12412984D01*
X18361896Y-12412984D02*
X18314277Y-12412984D01*
X18514277Y-12412984D02*
X18514277Y-12279650D01*
X18514277Y-12317746D02*
X18523801Y-12298698D01*
X18523801Y-12298698D02*
X18533324Y-12289174D01*
X18533324Y-12289174D02*
X18552372Y-12279650D01*
X18552372Y-12279650D02*
X18571420Y-12279650D01*
X18638086Y-12412984D02*
X18638086Y-12279650D01*
X18638086Y-12212984D02*
X18628563Y-12222508D01*
X18628563Y-12222508D02*
X18638086Y-12232031D01*
X18638086Y-12232031D02*
X18647610Y-12222508D01*
X18647610Y-12222508D02*
X18638086Y-12212984D01*
X18638086Y-12212984D02*
X18638086Y-12232031D01*
X18761896Y-12412984D02*
X18742848Y-12403460D01*
X18742848Y-12403460D02*
X18733324Y-12384412D01*
X18733324Y-12384412D02*
X18733324Y-12212984D01*
X18866658Y-12412984D02*
X18847610Y-12403460D01*
X18847610Y-12403460D02*
X18838086Y-12384412D01*
X18838086Y-12384412D02*
X18838086Y-12212984D01*
X19095229Y-12412984D02*
X19095229Y-12212984D01*
X19095229Y-12212984D02*
X19161896Y-12355841D01*
X19161896Y-12355841D02*
X19228563Y-12212984D01*
X19228563Y-12212984D02*
X19228563Y-12412984D01*
X19409515Y-12412984D02*
X19409515Y-12308222D01*
X19409515Y-12308222D02*
X19399991Y-12289174D01*
X19399991Y-12289174D02*
X19380944Y-12279650D01*
X19380944Y-12279650D02*
X19342848Y-12279650D01*
X19342848Y-12279650D02*
X19323801Y-12289174D01*
X19409515Y-12403460D02*
X19390467Y-12412984D01*
X19390467Y-12412984D02*
X19342848Y-12412984D01*
X19342848Y-12412984D02*
X19323801Y-12403460D01*
X19323801Y-12403460D02*
X19314277Y-12384412D01*
X19314277Y-12384412D02*
X19314277Y-12365365D01*
X19314277Y-12365365D02*
X19323801Y-12346317D01*
X19323801Y-12346317D02*
X19342848Y-12336793D01*
X19342848Y-12336793D02*
X19390467Y-12336793D01*
X19390467Y-12336793D02*
X19409515Y-12327269D01*
X19504753Y-12279650D02*
X19504753Y-12479650D01*
X19504753Y-12289174D02*
X19523801Y-12279650D01*
X19523801Y-12279650D02*
X19561896Y-12279650D01*
X19561896Y-12279650D02*
X19580944Y-12289174D01*
X19580944Y-12289174D02*
X19590467Y-12298698D01*
X19590467Y-12298698D02*
X19599991Y-12317746D01*
X19599991Y-12317746D02*
X19599991Y-12374888D01*
X19599991Y-12374888D02*
X19590467Y-12393936D01*
X19590467Y-12393936D02*
X19580944Y-12403460D01*
X19580944Y-12403460D02*
X19561896Y-12412984D01*
X19561896Y-12412984D02*
X19523801Y-12412984D01*
X19523801Y-12412984D02*
X19504753Y-12403460D01*
X19685705Y-12393936D02*
X19695229Y-12403460D01*
X19695229Y-12403460D02*
X19685705Y-12412984D01*
X19685705Y-12412984D02*
X19676182Y-12403460D01*
X19676182Y-12403460D02*
X19685705Y-12393936D01*
X19685705Y-12393936D02*
X19685705Y-12412984D01*
X19685705Y-12289174D02*
X19695229Y-12298698D01*
X19695229Y-12298698D02*
X19685705Y-12308222D01*
X19685705Y-12308222D02*
X19676182Y-12298698D01*
X19676182Y-12298698D02*
X19685705Y-12289174D01*
X19685705Y-12289174D02*
X19685705Y-12308222D01*
M02*
