%TF.GenerationSoftware,KiCad,Pcbnew,8.0.6*%
%TF.CreationDate,2026-01-06T18:32:07-08:00*%
%TF.ProjectId,qfn-programmer,71666e2d-7072-46f6-9772-616d6d65722e,rev?*%
%TF.SameCoordinates,Original*%
%TF.FileFunction,Copper,L1,Top*%
%TF.FilePolarity,Positive*%
%FSLAX46Y46*%
G04 Gerber Fmt 4.6, Leading zero omitted, Abs format (unit mm)*
G04 Created by KiCad (PCBNEW 8.0.6) date 2026-01-06 18:32:07*
%MOMM*%
%LPD*%
G01*
G04 APERTURE LIST*
G04 Aperture macros list*
%AMRoundRect*
0 Rectangle with rounded corners*
0 $1 Rounding radius*
0 $2 $3 $4 $5 $6 $7 $8 $9 X,Y pos of 4 corners*
0 Add a 4 corners polygon primitive as box body*
4,1,4,$2,$3,$4,$5,$6,$7,$8,$9,$2,$3,0*
0 Add four circle primitives for the rounded corners*
1,1,$1+$1,$2,$3*
1,1,$1+$1,$4,$5*
1,1,$1+$1,$6,$7*
1,1,$1+$1,$8,$9*
0 Add four rect primitives between the rounded corners*
20,1,$1+$1,$2,$3,$4,$5,0*
20,1,$1+$1,$4,$5,$6,$7,0*
20,1,$1+$1,$6,$7,$8,$9,0*
20,1,$1+$1,$8,$9,$2,$3,0*%
G04 Aperture macros list end*
%TA.AperFunction,Conductor*%
%ADD10C,0.300000*%
%TD*%
%TA.AperFunction,NonConductor*%
%ADD11C,0.200000*%
%TD*%
%TA.AperFunction,ComponentPad*%
%ADD12C,3.600000*%
%TD*%
%TA.AperFunction,ConnectorPad*%
%ADD13C,5.600000*%
%TD*%
%TA.AperFunction,SMDPad,CuDef*%
%ADD14RoundRect,0.250000X-0.262500X-0.450000X0.262500X-0.450000X0.262500X0.450000X-0.262500X0.450000X0*%
%TD*%
%TA.AperFunction,SMDPad,CuDef*%
%ADD15RoundRect,0.243750X-0.243750X-0.456250X0.243750X-0.456250X0.243750X0.456250X-0.243750X0.456250X0*%
%TD*%
%TA.AperFunction,SMDPad,CuDef*%
%ADD16RoundRect,0.250000X-0.250000X-0.475000X0.250000X-0.475000X0.250000X0.475000X-0.250000X0.475000X0*%
%TD*%
%TA.AperFunction,SMDPad,CuDef*%
%ADD17RoundRect,0.059400X0.295600X0.050600X-0.295600X0.050600X-0.295600X-0.050600X0.295600X-0.050600X0*%
%TD*%
%TA.AperFunction,SMDPad,CuDef*%
%ADD18RoundRect,0.059400X0.290600X0.050600X-0.290600X0.050600X-0.290600X-0.050600X0.290600X-0.050600X0*%
%TD*%
%TA.AperFunction,SMDPad,CuDef*%
%ADD19RoundRect,0.059400X0.050600X0.290600X-0.050600X0.290600X-0.050600X-0.290600X0.050600X-0.290600X0*%
%TD*%
%TA.AperFunction,ComponentPad*%
%ADD20R,1.700000X1.700000*%
%TD*%
%TA.AperFunction,ComponentPad*%
%ADD21O,1.700000X1.700000*%
%TD*%
%TA.AperFunction,ViaPad*%
%ADD22C,0.600000*%
%TD*%
%TA.AperFunction,Conductor*%
%ADD23C,0.200000*%
%TD*%
G04 APERTURE END LIST*
D10*
%TO.N,Net-(U1-LA)*%
X231760000Y-73100000D02*
X231760000Y-111780000D01*
X229760000Y-71100000D02*
X229760000Y-113780000D01*
X247873000Y-73100000D02*
X247873000Y-110780000D01*
X229760000Y-71100000D02*
X249873000Y-71100000D01*
X228760000Y-70100000D02*
X250873000Y-70100000D01*
X232760000Y-74100000D02*
X246873000Y-74100000D01*
X232760000Y-74100000D02*
X232760000Y-110780000D01*
X230760000Y-72100000D02*
X248873000Y-72100000D01*
X227760000Y-69100000D02*
X227760000Y-115780000D01*
X250873000Y-70100000D02*
X250873000Y-113780000D01*
X230760000Y-72100000D02*
X230760000Y-112780000D01*
X228760000Y-70100000D02*
X228760000Y-114780000D01*
X251873000Y-69100000D02*
X251873000Y-114780000D01*
X226760000Y-68100000D02*
X252873000Y-68100000D01*
X227760000Y-69100000D02*
X251873000Y-69100000D01*
X227760000Y-115780000D02*
X252873000Y-115780000D01*
X248873000Y-72100000D02*
X248873000Y-111780000D01*
X228760000Y-114780000D02*
X251873000Y-114780000D01*
X231760000Y-73100000D02*
X247873000Y-73100000D01*
X249873000Y-71100000D02*
X249873000Y-112780000D01*
X252873000Y-68100000D02*
X252873000Y-115780000D01*
X226760000Y-91940000D02*
X226760000Y-68100000D01*
X231760000Y-111780000D02*
X248873000Y-111780000D01*
X232760000Y-110780000D02*
X247873000Y-110780000D01*
X229760000Y-113780000D02*
X250873000Y-113780000D01*
X230760000Y-112780000D02*
X249873000Y-112780000D01*
X233760000Y-91940000D02*
X233760000Y-109780000D01*
X233760000Y-109780000D02*
X246873000Y-109780000D01*
X246873000Y-74100000D02*
X246873000Y-109780000D01*
D11*
X252370000Y-101550000D02*
X252370000Y-101550000D01*
%TD*%
D12*
%TO.P,H4,1*%
%TO.N,N/C*%
X259700000Y-116970000D03*
D13*
X259700000Y-116970000D03*
%TD*%
D12*
%TO.P,H3,1*%
%TO.N,N/C*%
X259700000Y-66970000D03*
D13*
X259700000Y-66970000D03*
%TD*%
D12*
%TO.P,H2,1*%
%TO.N,N/C*%
X184700000Y-116970000D03*
D13*
X184700000Y-116970000D03*
%TD*%
D12*
%TO.P,H1,1*%
%TO.N,N/C*%
X184700000Y-66970000D03*
D13*
X184700000Y-66970000D03*
%TD*%
D14*
%TO.P,R1,1*%
%TO.N,VCC*%
X211780000Y-99080000D03*
%TO.P,R1,2*%
%TO.N,Net-(D1-A)*%
X213605000Y-99080000D03*
%TD*%
D15*
%TO.P,D1,2,A*%
%TO.N,Net-(D1-A)*%
X213670000Y-103065000D03*
%TO.P,D1,1,K*%
%TO.N,GND*%
X211795000Y-103065000D03*
%TD*%
D16*
%TO.P,C1,2*%
%TO.N,GND*%
X213662500Y-95055000D03*
%TO.P,C1,1*%
%TO.N,VCC*%
X211762500Y-95055000D03*
%TD*%
D17*
%TO.P,U1,1,LA*%
%TO.N,Net-(U1-LA)*%
X213080000Y-90070000D03*
%TO.P,U1,2,VSS*%
%TO.N,GND*%
X213080000Y-89570000D03*
D18*
%TO.P,U1,3,SCL*%
%TO.N,SCL*%
X213080000Y-89070000D03*
D19*
%TO.P,U1,4,FD*%
%TO.N,FD*%
X212385000Y-88875000D03*
D18*
%TO.P,U1,5,SDA*%
%TO.N,SDA*%
X211690000Y-89070000D03*
%TO.P,U1,6,VCC*%
%TO.N,VCC*%
X211690000Y-89570000D03*
%TO.P,U1,7,VOUT*%
X211690000Y-90070000D03*
D19*
%TO.P,U1,8,LB*%
%TO.N,Net-(U1-LA)*%
X212385000Y-90265000D03*
%TD*%
D20*
%TO.P,J2,1,Pin_1*%
%TO.N,VCC*%
X194980000Y-77920000D03*
D21*
%TO.P,J2,2,Pin_2*%
%TO.N,SCL*%
X194980000Y-80460000D03*
%TO.P,J2,3,Pin_3*%
%TO.N,FD*%
X194980000Y-83000000D03*
%TO.P,J2,4,Pin_4*%
%TO.N,SDA*%
X194980000Y-85540000D03*
%TO.P,J2,5,Pin_5*%
%TO.N,GND*%
X194980000Y-88080000D03*
%TD*%
D20*
%TO.P,J1,1,Pin_1*%
%TO.N,VCC*%
X194880000Y-105890000D03*
D21*
%TO.P,J1,2,Pin_2*%
%TO.N,SCL*%
X194880000Y-103350000D03*
%TO.P,J1,3,Pin_3*%
%TO.N,FD*%
X194880000Y-100810000D03*
%TO.P,J1,4,Pin_4*%
%TO.N,SDA*%
X194880000Y-98270000D03*
%TO.P,J1,5,Pin_5*%
%TO.N,GND*%
X194880000Y-95730000D03*
%TD*%
D22*
%TO.N,GND*%
X215180000Y-95050000D03*
X210060000Y-103060000D03*
X214170000Y-88980000D03*
%TO.N,Net-(U1-LA)*%
X233763000Y-91940000D03*
X214080000Y-91910000D03*
%TD*%
D23*
%TO.N,VCC*%
X194880000Y-105890000D02*
X204970000Y-105890000D01*
X204970000Y-105890000D02*
X211780000Y-99080000D01*
%TO.N,GND*%
X215175000Y-95055000D02*
X215180000Y-95050000D01*
X213662500Y-95055000D02*
X215175000Y-95055000D01*
X210065000Y-103065000D02*
X210060000Y-103060000D01*
X211795000Y-103065000D02*
X210065000Y-103065000D01*
%TO.N,Net-(D1-A)*%
X213605000Y-103000000D02*
X213670000Y-103065000D01*
X213605000Y-99080000D02*
X213605000Y-103000000D01*
%TO.N,VCC*%
X211762500Y-99062500D02*
X211780000Y-99080000D01*
X211762500Y-95055000D02*
X211762500Y-99062500D01*
X211690000Y-94982500D02*
X211762500Y-95055000D01*
X211690000Y-89570000D02*
X211690000Y-94982500D01*
X192530000Y-103540000D02*
X192530000Y-80370000D01*
X194880000Y-105890000D02*
X192530000Y-103540000D01*
X192530000Y-80370000D02*
X194980000Y-77920000D01*
%TO.N,GND*%
X213080000Y-89570000D02*
X213580000Y-89570000D01*
X213580000Y-89570000D02*
X214170000Y-88980000D01*
%TO.N,SCL*%
X213080000Y-89070000D02*
X213080000Y-88718886D01*
X204821114Y-80460000D02*
X194980000Y-80460000D01*
X192930000Y-101400000D02*
X192930000Y-82510000D01*
X194880000Y-103350000D02*
X192930000Y-101400000D01*
X213080000Y-88718886D02*
X204821114Y-80460000D01*
X192930000Y-82510000D02*
X194980000Y-80460000D01*
%TO.N,FD*%
X206510000Y-83000000D02*
X194980000Y-83000000D01*
X193330000Y-84650000D02*
X193330000Y-99260000D01*
X212385000Y-88875000D02*
X206510000Y-83000000D01*
X193330000Y-99260000D02*
X194880000Y-100810000D01*
X194980000Y-83000000D02*
X193330000Y-84650000D01*
%TO.N,SDA*%
X193730000Y-86790000D02*
X194980000Y-85540000D01*
X208160000Y-85540000D02*
X194980000Y-85540000D01*
X211690000Y-89070000D02*
X208160000Y-85540000D01*
X194880000Y-98270000D02*
X193730000Y-97120000D01*
X193730000Y-97120000D02*
X193730000Y-86790000D01*
D10*
%TO.N,Net-(U1-LA)*%
X213080000Y-90070000D02*
X213928529Y-90070000D01*
X213928529Y-90070000D02*
X215798529Y-91940000D01*
D23*
X214030000Y-91910000D02*
X212385000Y-90265000D01*
D10*
X215798529Y-91940000D02*
X226760000Y-91940000D01*
D23*
X214080000Y-91910000D02*
X214030000Y-91910000D01*
%TD*%
M02*
